<mxfile host="app.diagrams.net" modified="2024-03-18T04:45:56.710Z" agent="Mozilla/5.0 (Windows NT 10.0; Win64; x64) AppleWebKit/537.36 (KHTML, like Gecko) Chrome/121.0.0.0 Safari/537.36 OPR/107.0.0.0" etag="eiYOl1iNfFqeyk8CaLZf" version="24.0.7" type="github">
  <diagram name="Page-1" id="kfqFHJFb_f-QRXcr78tR">
    <mxGraphModel dx="1060" dy="1720" grid="1" gridSize="10" guides="1" tooltips="1" connect="1" arrows="1" fold="1" page="1" pageScale="1" pageWidth="850" pageHeight="1100" math="0" shadow="0">
      <root>
        <mxCell id="0" />
        <mxCell id="1" parent="0" />
        <mxCell id="haIxTAdqao9FJZcNr7RL-2" value="Customer" style="whiteSpace=wrap;html=1;align=center;" vertex="1" parent="1">
          <mxGeometry x="60" y="-310" width="100" height="40" as="geometry" />
        </mxCell>
        <mxCell id="haIxTAdqao9FJZcNr7RL-7" value="Online Transaction" style="whiteSpace=wrap;html=1;align=center;" vertex="1" parent="1">
          <mxGeometry x="400" y="-70" width="100" height="40" as="geometry" />
        </mxCell>
        <mxCell id="haIxTAdqao9FJZcNr7RL-8" value="Account" style="whiteSpace=wrap;html=1;align=center;" vertex="1" parent="1">
          <mxGeometry x="400" y="-310" width="100" height="40" as="geometry" />
        </mxCell>
        <mxCell id="haIxTAdqao9FJZcNr7RL-11" value="Branches" style="whiteSpace=wrap;html=1;align=center;" vertex="1" parent="1">
          <mxGeometry x="70" y="-80" width="80" height="40" as="geometry" />
        </mxCell>
        <mxCell id="haIxTAdqao9FJZcNr7RL-13" value="Has" style="shape=rhombus;perimeter=rhombusPerimeter;whiteSpace=wrap;html=1;align=center;" vertex="1" parent="1">
          <mxGeometry x="60" y="-210" width="100" height="60" as="geometry" />
        </mxCell>
        <mxCell id="haIxTAdqao9FJZcNr7RL-9" value="Owns" style="shape=rhombus;perimeter=rhombusPerimeter;whiteSpace=wrap;html=1;align=center;" vertex="1" parent="1">
          <mxGeometry x="220" y="-320" width="120" height="60" as="geometry" />
        </mxCell>
        <mxCell id="haIxTAdqao9FJZcNr7RL-10" value="activity" style="shape=rhombus;perimeter=rhombusPerimeter;whiteSpace=wrap;html=1;align=center;" vertex="1" parent="1">
          <mxGeometry x="395" y="-200" width="110" height="60" as="geometry" />
        </mxCell>
        <mxCell id="haIxTAdqao9FJZcNr7RL-30" value="" style="fontSize=12;html=1;endArrow=ERone;endFill=1;rounded=0;entryX=0.5;entryY=0;entryDx=0;entryDy=0;exitX=0.5;exitY=1;exitDx=0;exitDy=0;" edge="1" parent="1" source="haIxTAdqao9FJZcNr7RL-13" target="haIxTAdqao9FJZcNr7RL-11">
          <mxGeometry width="100" height="100" relative="1" as="geometry">
            <mxPoint x="130" y="-210" as="sourcePoint" />
            <mxPoint x="140" y="-110" as="targetPoint" />
          </mxGeometry>
        </mxCell>
        <mxCell id="haIxTAdqao9FJZcNr7RL-31" value="" style="fontSize=12;html=1;endArrow=ERmany;rounded=0;exitX=0.5;exitY=0;exitDx=0;exitDy=0;entryX=0.5;entryY=1;entryDx=0;entryDy=0;" edge="1" parent="1" source="haIxTAdqao9FJZcNr7RL-13" target="haIxTAdqao9FJZcNr7RL-2">
          <mxGeometry width="100" height="100" relative="1" as="geometry">
            <mxPoint x="-50" y="-170" as="sourcePoint" />
            <mxPoint x="50" y="-270" as="targetPoint" />
          </mxGeometry>
        </mxCell>
        <mxCell id="haIxTAdqao9FJZcNr7RL-35" value="" style="edgeStyle=entityRelationEdgeStyle;fontSize=12;html=1;endArrow=ERoneToMany;rounded=0;exitX=1;exitY=0.5;exitDx=0;exitDy=0;entryX=0;entryY=0.5;entryDx=0;entryDy=0;" edge="1" parent="1" source="haIxTAdqao9FJZcNr7RL-9" target="haIxTAdqao9FJZcNr7RL-8">
          <mxGeometry width="100" height="100" relative="1" as="geometry">
            <mxPoint x="280" y="-220" as="sourcePoint" />
            <mxPoint x="380" y="-320" as="targetPoint" />
          </mxGeometry>
        </mxCell>
        <mxCell id="haIxTAdqao9FJZcNr7RL-36" value="" style="edgeStyle=entityRelationEdgeStyle;fontSize=12;html=1;endArrow=ERoneToMany;rounded=0;exitX=0;exitY=0.5;exitDx=0;exitDy=0;entryX=1;entryY=0.5;entryDx=0;entryDy=0;" edge="1" parent="1" source="haIxTAdqao9FJZcNr7RL-9" target="haIxTAdqao9FJZcNr7RL-2">
          <mxGeometry width="100" height="100" relative="1" as="geometry">
            <mxPoint x="90" y="-370" as="sourcePoint" />
            <mxPoint x="190" y="-470" as="targetPoint" />
            <Array as="points">
              <mxPoint x="120" y="-370" />
            </Array>
          </mxGeometry>
        </mxCell>
        <mxCell id="haIxTAdqao9FJZcNr7RL-37" value="" style="fontSize=12;html=1;endArrow=ERzeroToMany;endFill=1;rounded=0;entryX=0.5;entryY=1;entryDx=0;entryDy=0;exitX=0.5;exitY=0;exitDx=0;exitDy=0;" edge="1" parent="1" source="haIxTAdqao9FJZcNr7RL-10" target="haIxTAdqao9FJZcNr7RL-8">
          <mxGeometry width="100" height="100" relative="1" as="geometry">
            <mxPoint x="360" y="-70" as="sourcePoint" />
            <mxPoint x="460" y="-170" as="targetPoint" />
          </mxGeometry>
        </mxCell>
        <mxCell id="haIxTAdqao9FJZcNr7RL-40" value="" style="fontSize=12;html=1;endArrow=ERone;endFill=1;rounded=0;exitX=0.5;exitY=1;exitDx=0;exitDy=0;entryX=0.5;entryY=0;entryDx=0;entryDy=0;" edge="1" parent="1" source="haIxTAdqao9FJZcNr7RL-10" target="haIxTAdqao9FJZcNr7RL-7">
          <mxGeometry width="100" height="100" relative="1" as="geometry">
            <mxPoint x="520" y="-90" as="sourcePoint" />
            <mxPoint x="620" y="-190" as="targetPoint" />
          </mxGeometry>
        </mxCell>
      </root>
    </mxGraphModel>
  </diagram>
</mxfile>
